# File created by Blade
# Date/Time:  Wed Sep 24 19:42:34 2014
# Frame Rate: 120.000 fps
#------------------------------------------------------
:FULLY-SPECIFIED
:DEGREES
2272
root -4.999925 33.076252 -3.930425 6.966687 1.541020 -2.277119
Spine -13.762259 13.799224 -9.043630
Head 20.386662 -12.707593 5.623354
LeftShoulder -14.225323 24.236090 5.185996
LeftArm 23.625746 23.671517 -60.960053
LeftForeArm 2.625624 -0.000000 25.571299
LeftHand -24.853684 -0.000000 -6.720226
LeftHandThumb1 -26.253704 0.000000 33.147579
RightShoulder 265.363275 63.878845 199.958125
RightArm -16.345025 22.372837 39.516175
RightForeArm 55.590587 -0.000000 142.727775
RightHand 6.631191 -0.000000 28.986402
RightHandThumb1 -24.326973 -0.000000 -32.862282
LeftUpLeg -2.654728 4.701556 6.658687
LeftLeg -0.974453 -0.000000 0.000000
LeftFoot -7.812540 5.277464 -19.889617
LeftToeBase 10.579639 -0.000000 -0.000000
RightUpLeg -5.347830 -6.750750 0.951923
RightLeg 3.783597 -0.000000 -0.000000
RightFoot -6.410435 -5.154600 -15.512875
RightToeBase 1.319818 -0.000000 -0.000000
2273
root -4.999914 33.076391 -3.935566 6.961126 1.563757 -2.269314
Spine -13.730944 13.791527 -9.035247
Head 20.387629 -12.614985 5.656731
LeftShoulder -14.212716 24.204294 5.194451
LeftArm 23.666752 23.711007 -60.942246
LeftForeArm 2.656592 -0.000000 25.721357
LeftHand -24.849440 -0.000000 -6.612625
LeftHandThumb1 -26.253704 0.000000 33.147579
RightShoulder 265.343303 63.909605 199.954012
RightArm -16.313670 22.274522 39.564622
RightForeArm 54.972057 -0.000000 143.033613
RightHand 6.622855 -0.000000 28.630508
RightHandThumb1 -24.326973 -0.000000 -32.862282
LeftUpLeg -2.675762 4.706067 6.652598
LeftLeg -0.949184 -0.000000 0.000000
LeftFoot -7.800608 5.251761 -19.886793
LeftToeBase 10.469254 -0.000000 -0.000000
RightUpLeg -5.350072 -6.743858 0.945052
RightLeg 3.784977 -0.000000 -0.000000
RightFoot -6.402405 -5.177625 -15.498730
RightToeBase 1.281868 -0.000000 -0.000000
2274
root -4.998749 33.076613 -3.942174 6.967055 1.608798 -2.258417
Spine -13.709228 13.779923 -9.026575
Head 20.407132 -12.572925 5.676763
LeftShoulder -14.194678 24.158955 5.205692
LeftArm 23.708586 23.786972 -60.906908
LeftForeArm 2.697938 -0.000000 25.878145
LeftHand -24.878927 -0.000000 -6.660364
LeftHandThumb1 -26.253704 0.000000 33.147579
RightShoulder 265.225693 63.918010 199.826076
RightArm -16.298324 22.115007 39.618789
RightForeArm 54.359518 0.000000 143.306033
RightHand 6.552318 -0.000000 28.152719
RightHandThumb1 -24.326973 -0.000000 -32.862282
LeftUpLeg -2.716598 4.702151 6.640276
LeftLeg -0.920590 -0.000000 0.000000
LeftFoot -7.779362 5.213035 -19.884676
LeftToeBase 10.451957 -0.000000 -0.000000
RightUpLeg -5.364166 -6.740552 0.935277
RightLeg 3.789087 -0.000000 -0.000000
RightFoot -6.383579 -5.217212 -15.521132
RightToeBase 1.300974 -0.000000 -0.000000
2275
root -4.997900 33.077097 -3.948853 6.973873 1.651574 -2.244906
Spine -13.683398 13.763318 -9.027497
Head 20.424861 -12.539460 5.726525
LeftShoulder -14.204799 24.139125 5.207988
LeftArm 23.783005 23.824587 -60.864584
LeftForeArm 2.759291 -0.000000 26.039209
LeftHand -24.838421 -0.000000 -6.639080
LeftHandThumb1 -26.253704 0.000000 33.147579
RightShoulder 265.168409 63.913850 199.744915
RightArm -16.279272 21.971410 39.676074
RightForeArm 53.980506 -0.000000 143.535465
RightHand 6.465788 -0.000000 27.769689
RightHandThumb1 -24.326973 -0.000000 -32.862282
LeftUpLeg -2.760930 4.715818 6.624986
LeftLeg -0.889672 -0.000000 0.000000
LeftFoot -7.763260 5.161567 -19.861881
LeftToeBase 10.552297 -0.000000 -0.000000
RightUpLeg -5.383432 -6.741856 0.924902
RightLeg 3.797608 -0.000000 -0.000000
RightFoot -6.371768 -5.255959 -15.507436
RightToeBase 1.271266 -0.000000 -0.000000
